<?xml version="1.0" standalone="no"?>
<!DOCTYPE svg PUBLIC "-//W3C//DTD SVG 1.1//EN" "http://www.w3.org/Graphics/SVG/1.1/DTD/svg11.dtd" >
<svg xmlns="http://www.w3.org/2000/svg" xmlns:xlink="http://www.w3.org/1999/xlink" version="1.1">
<metadata></metadata>
<defs>
<font id="landasansmedium" horiz-adv-x="720" >
<font-face units-per-em="2048" ascent="1638" descent="-410" />
<missing-glyph horiz-adv-x="311" />
<glyph unicode="&#xfb01;" horiz-adv-x="847" d="M41 926v147h121v82q0 143 75.5 215t202.5 72h101v-123h-70q-68 0 -107.5 -40t-39.5 -124v-82h442v-1073h-162v926h-280v-926h-162v926h-121z" />
<glyph unicode="&#xfb02;" horiz-adv-x="847" d="M41 926v147h121v82q0 143 75.5 215t202.5 72h326v-1442h-162v1319h-133q-68 0 -107.5 -40t-39.5 -124v-82h178v-147h-178v-926h-162v926h-121z" />
<glyph horiz-adv-x="0" />
<glyph horiz-adv-x="682" />
<glyph unicode=" "  horiz-adv-x="311" />
<glyph unicode="&#x09;" horiz-adv-x="311" />
<glyph unicode="&#xa0;" horiz-adv-x="311" />
<glyph unicode="!" horiz-adv-x="325" d="M82 600v842h162v-842l-35 -313h-96zM90 0v168h146v-168h-146z" />
<glyph unicode="&#x22;" horiz-adv-x="425" d="M41 1264v180h147v-180l-53 -119h-69l45 119h-70zM238 1264v180h147v-180l-53 -119h-70l45 119h-69z" />
<glyph unicode="#" horiz-adv-x="1005" d="M35 360l22 166h156l57 400h-168l21 159h170l49 357h158l-51 -357h200l51 357h162l-51 -357h160l-21 -159h-162l-55 -400h170l-24 -166h-170l-52 -360h-161l51 360h-201l-51 -360h-156l51 360h-155zM371 526h200l56 400h-201z" />
<glyph unicode="$" horiz-adv-x="647" d="M66 260v150h153v-150q0 -72 29 -106.5t78 -34.5q47 0 74.5 34.5t27.5 106.5v152q0 44 -19 78t-49.5 56t-67.5 43t-74 45.5t-67.5 55.5t-49.5 81.5t-19 115.5v160q0 233 190 260v135h105v-133q207 -21 207 -269v-155h-156v155q0 65 -27.5 98t-68.5 33q-44 0 -72.5 -30 t-28.5 -94v-154q0 -43 19.5 -76t50.5 -55.5t68.5 -43t75.5 -45.5t69 -56t50.5 -81t19.5 -114v-162q0 -133 -51 -199.5t-156 -78.5v-170h-105v170q-103 12 -154.5 79.5t-51.5 198.5z" />
<glyph unicode="%" horiz-adv-x="980" d="M49 1094v114q0 125 53 189.5t150 64.5h10q97 0 150 -64.5t53 -189.5v-114q0 -125 -53 -188.5t-150 -63.5h-10q-97 0 -150 63.5t-53 188.5zM51 0l740 1442h127l-742 -1442h-125zM160 1083q0 -139 94 -139h4q96 0 96 139v138q0 139 -96 139h-2q-96 0 -96 -139v-138z M520 231v117q0 127 49.5 189.5t153.5 62.5h10q203 0 203 -252v-117q0 -127 -50 -189t-153 -62h-10q-104 0 -153.5 61.5t-49.5 189.5zM631 221q0 -139 94 -139h4q96 0 96 139v137q0 140 -96 140h-2q-96 0 -96 -140v-137z" />
<glyph unicode="&#x26;" horiz-adv-x="741" d="M33 266v269q0 146 123 204q-46 25 -78.5 75t-32.5 118v252q0 132 70.5 203t201.5 71q119 0 192 -69.5t73 -204.5v-252h-164v237q0 74 -28.5 109t-74.5 35q-108 0 -108 -144v-208q0 -144 123 -144l368 2v-145h-125v-393q0 -62 28 -100t73 -38h28v-141l-26 -2 q-49 0 -94 22.5t-74 59.5q-29 -44 -79.5 -71t-113.5 -27q-135 0 -208.5 75.5t-73.5 206.5zM193 532l2 -249q0 -70 33 -108t85 -38q111 0 111 146v391h-96q-55 0 -95 -31.5t-40 -110.5z" />
<glyph unicode="'" horiz-adv-x="237" d="M41 1262v180h147v-180l-53 -119h-69l45 119h-70z" />
<glyph unicode="(" horiz-adv-x="382" d="M49 -68v1391q0 313 260 313h49v-131h-47q-104 0 -104 -178v-1399q0 -178 104 -178h47v-131h-49q-260 0 -260 313z" />
<glyph unicode=")" horiz-adv-x="382" d="M25 -250h47q104 0 104 178v1399q0 178 -104 178h-47v131h49q260 0 260 -313v-1391q0 -313 -260 -313h-49v131z" />
<glyph unicode="*" horiz-adv-x="415" d="M25 1331l26 86l80 -24l41 -23l-10 49v84h90v-84l-10 -49l41 23l79 24l27 -86l-80 -24l-43 -7l35 -28l53 -66l-69 -59l-56 65l-22 50l-21 -50l-55 -65l-70 59l54 66l35 28l-46 7z" />
<glyph unicode="+" horiz-adv-x="610" d="M33 500v135h205v207h135v-207h205v-135h-205v-207h-135v207h-205z" />
<glyph unicode="," horiz-adv-x="231" d="M41 0v168h147v-168l-53 -131h-69l45 131h-70z" />
<glyph unicode="-" horiz-adv-x="610" d="M33 582v120h545v-120h-545z" />
<glyph unicode="." horiz-adv-x="235" d="M45 0v168h145v-168h-145z" />
<glyph unicode="/" horiz-adv-x="501" d="M23 0l321 1585h135l-323 -1585h-133z" />
<glyph unicode="0" horiz-adv-x="677" d="M68 279v882q0 156 74 227.5t190 71.5h10q119 0 193.5 -71.5t74.5 -227.5v-882q0 -82 -21.5 -142t-59.5 -93t-84.5 -48.5t-102.5 -15.5h-10q-55 0 -100.5 15.5t-83.5 48.5t-59 93t-21 142zM225 258q0 -76 33 -112.5t78 -36.5h4q46 0 79.5 36t33.5 113v924q0 76 -34 112.5 t-81 36.5h-2q-44 0 -77.5 -37t-33.5 -112v-924z" />
<glyph unicode="1" horiz-adv-x="389" d="M23 1303v139h284v-1442h-162v1303h-122z" />
<glyph unicode="2" horiz-adv-x="690" d="M68 0v422q0 70 21.5 125.5t55.5 91.5t75.5 66t82.5 55t75 51t55.5 62t21.5 81v244q0 68 -31 99.5t-78 31.5q-44 0 -76 -35t-32 -102v-178h-168v188q0 124 70 190t206 66t206.5 -66t70.5 -190v-252q0 -71 -21 -127t-55 -92t-75.5 -66t-82.5 -55t-75 -51.5t-55 -63.5 t-21 -83v-258h217v235h168v-389h-555z" />
<glyph unicode="3" horiz-adv-x="704" d="M68 254v180h161v-166q0 -73 31.5 -109t87.5 -36q59 0 94 36.5t35 108.5v264q0 142 -141 142h-90v147l86 -2q54 0 92.5 32t38.5 110v219q0 77 -33.5 111t-83.5 34q-46 0 -79.5 -36.5t-33.5 -108.5v-144h-161v160q0 135 74 203.5t198 68.5q136 0 208.5 -70.5t72.5 -201.5 v-250q0 -63 -30.5 -113t-74.5 -79q50 -25 83.5 -76t33.5 -129v-295q0 -131 -74.5 -202.5t-216.5 -71.5q-129 0 -203.5 69t-74.5 205z" />
<glyph unicode="4" horiz-adv-x="677" d="M25 375v149l350 918h221v-1442h-162v375h-409zM184 524h250v666z" />
<glyph unicode="5" horiz-adv-x="690" d="M68 244v178h161v-164q0 -68 35 -101.5t82 -33.5t81 33.5t34 101.5v461q0 76 -33.5 113.5t-79.5 37.5q-47 0 -81 -37.5t-34 -113.5v-27h-161l-4 750h548v-162h-387l4 -348q43 59 146 59q120 0 182 -63t62 -205v-479q0 -129 -75.5 -196.5t-199.5 -67.5q-133 0 -206.5 69.5 t-73.5 194.5z" />
<glyph unicode="6" horiz-adv-x="698" d="M68 258v926q0 136 75.5 205t202.5 69q135 0 210 -72.5t75 -201.5v-111h-162v111q0 72 -35.5 108.5t-85.5 36.5q-49 0 -84 -36t-35 -109v-252q42 59 152 59q123 0 186.5 -63t63.5 -205v-465q0 -133 -76 -203.5t-201 -70.5q-138 0 -212 72t-74 202zM229 274 q0 -70 33.5 -107.5t87.5 -37.5q50 0 84.5 35.5t34.5 109.5v445q0 76 -34.5 113.5t-84.5 37.5t-84.5 -37.5t-34.5 -113.5z" />
<glyph unicode="7" horiz-adv-x="604" d="M41 1280v162h526v-162l-262 -1280h-168l260 1280h-356z" />
<glyph unicode="8" horiz-adv-x="710" d="M68 258v291q0 149 114 207q-106 65 -106 196v232q0 134 73.5 204t200.5 70q136 0 208.5 -72.5t72.5 -201.5v-232q0 -126 -107 -194q119 -64 119 -209v-291q0 -133 -72.5 -203.5t-218.5 -70.5q-134 0 -209 69t-75 205zM229 272q0 -145 125 -145q127 0 127 145v260 q0 74 -36 110t-91 36q-53 0 -89 -36t-36 -110v-260zM238 967q0 -74 31.5 -110t82.5 -36q47 0 82 39.5t35 106.5v217q0 75 -31.5 110t-85.5 35q-53 0 -83.5 -35.5t-30.5 -109.5v-217z" />
<glyph unicode="9" horiz-adv-x="686" d="M68 258v100h161v-86q0 -72 33.5 -108.5t79.5 -36.5q49 0 82 36t33 109v244q-41 -61 -148 -61q-241 0 -241 268v461q0 135 73 204.5t197 69.5q138 0 209 -71.5t71 -202.5v-926q0 -136 -74 -205t-200 -69q-134 0 -205 71t-71 203zM229 727q0 -75 33 -113.5t74 -38.5 q49 0 84 38t35 114l2 442q0 71 -30.5 108.5t-84.5 37.5q-113 0 -113 -146v-442z" />
<glyph unicode=":" horiz-adv-x="229" d="M45 0v168h145v-168h-145zM45 616v168h145v-168h-145z" />
<glyph unicode=";" horiz-adv-x="231" d="M41 0v168h147v-168l-53 -131h-69l45 131h-70zM45 616v168h145v-168h-145z" />
<glyph unicode="&#x3c;" horiz-adv-x="557" d="M23 586l342 338h182l-342 -338l342 -336h-182z" />
<glyph unicode="=" horiz-adv-x="753" d="M33 317v123h688v-123h-688zM33 633v121h688v-121h-688z" />
<glyph unicode="&#x3e;" horiz-adv-x="550" d="M10 250l342 336l-342 338h183l342 -338l-342 -336h-183z" />
<glyph unicode="?" horiz-adv-x="641" d="M45 1040v170q0 124 70 190t204 66q136 0 206.5 -66t70.5 -190v-206q0 -96 -21 -162t-51 -101t-59.5 -66t-50.5 -80.5t-21 -121.5v-186h-170v184q0 65 11.5 115.5t29.5 82t39.5 57t43.5 48t40 47.5t29.5 63.5t11.5 88.5v207q0 67 -32 99t-77 32q-41 0 -72.5 -36 t-31.5 -104v-131h-170zM223 0v168h170v-168h-170z" />
<glyph unicode="@" horiz-adv-x="1050" d="M66 369v739q0 104 28.5 174.5t88.5 110.5t140.5 56.5t196.5 16.5q115 0 196 -16.5t141.5 -56.5t90 -110.5t29.5 -174.5v-604q0 -107 -33 -161t-119 -54q-71 0 -108 24.5t-49 73.5q-45 -98 -162 -98q-93 0 -148 56t-55 159v405q0 104 53 159.5t140 55.5q53 0 95 -27 t62 -67v72h72v-592q0 -69 17 -99t53 -30q14 0 24.5 5t17 15.5t10 20.5t5 28t2 28.5t0.5 31.5v596q0 63 -19 107.5t-48 69t-76.5 38t-89 17t-101.5 3.5t-101.5 -3.5t-89 -17t-76.5 -38t-48 -69t-19 -107.5v-733q0 -64 19.5 -110t50 -72.5t78.5 -42t93 -20.5t105 -5h445v-123 h-445q-236 0 -351 84.5t-115 284.5zM414 510q0 -129 100 -129q46 0 73 31.5t27 97.5v391q0 125 -100 125t-100 -125v-391z" />
<glyph unicode="A" horiz-adv-x="704" d="M49 0l176 1442h258l185 -1442h-162l-35 295h-227l-31 -295h-164zM260 451h195l-97 829h-10z" />
<glyph unicode="B" horiz-adv-x="714" d="M82 0l2 1442h283q127 0 198.5 -66.5t71.5 -201.5v-216q0 -64 -24 -119t-68 -85q102 -52 102 -211v-287q0 -256 -280 -256h-285zM244 154h112q53 0 87 32t34 109v217q0 77 -31.5 113.5t-80.5 36.5h-121v-508zM244 827h112q51 0 86 36.5t35 113.5v172q0 75 -34 108t-85 33 h-114v-463z" />
<glyph unicode="C" d="M68 291v870q0 152 77.5 225.5t208.5 73.5h11q132 0 210 -75.5t78 -235.5v-191h-166v203q0 78 -35.5 116t-91.5 38h-2q-54 0 -89.5 -38t-35.5 -116v-870q0 -79 35 -115.5t88 -36.5h4q56 0 91.5 36.5t35.5 115.5v252h166v-252q0 -162 -78 -236.5t-210 -74.5h-11 q-132 0 -209 74.5t-77 236.5z" />
<glyph unicode="D" horiz-adv-x="710" d="M82 0v1442h280q133 0 207 -60.5t74 -207.5v-906q0 -66 -14 -114t-37.5 -77.5t-61 -47t-77 -23.5t-91.5 -6h-280zM244 154h114q121 0 121 139v856q0 76 -33.5 108.5t-85.5 32.5h-116v-1136z" />
<glyph unicode="E" horiz-adv-x="593" d="M82 0l2 1442h473v-160h-311v-448h262v-154h-262v-518h311v-162h-475z" />
<glyph unicode="F" horiz-adv-x="593" d="M82 0l2 1442h473v-160h-311v-448h262v-154h-262v-680h-164z" />
<glyph unicode="G" d="M68 303v846q0 160 78 235.5t208 75.5h11q133 0 210.5 -75t77.5 -236v-188h-166v200q0 78 -35.5 116t-91.5 38h-2q-52 0 -87 -38t-35 -116v-870q0 -79 34.5 -115.5t85.5 -36.5h6q138 0 138 152v325h-144v162h297v-475q0 -163 -78 -243t-210 -80h-11q-129 0 -207.5 80 t-78.5 243z" />
<glyph unicode="H" horiz-adv-x="735" d="M82 0v1442h162v-625h248v625h161v-1442h-161v655h-248v-655h-162z" />
<glyph unicode="I" horiz-adv-x="323" d="M82 0v1442h162v-1442h-162z" />
<glyph unicode="J" horiz-adv-x="698" d="M68 293v235h161v-235q0 -76 34.5 -113t84.5 -37q51 0 86 37t35 113v1149h162v-1149q0 -159 -70.5 -234t-210.5 -75q-139 0 -210.5 74.5t-71.5 234.5z" />
<glyph unicode="K" horiz-adv-x="679" d="M82 0v1442h162v-576l10 -8l209 584h178l-254 -684l256 -758h-162l-192 551l-47 -135l2 -416h-162z" />
<glyph unicode="L" horiz-adv-x="555" d="M82 0v1442h162v-1278h272v-164h-434z" />
<glyph unicode="M" horiz-adv-x="860" d="M82 0v1442h207l143 -932l129 932h217v-1442h-162v1038l-124 -1038h-117l-131 1044v-1044h-162z" />
<glyph unicode="N" horiz-adv-x="735" d="M82 0v1442h164l246 -946v946h163v-1442h-163l-246 864v-864h-164z" />
<glyph unicode="O" horiz-adv-x="727" d="M68 291v872q0 297 290 297h11q290 0 290 -299v-870q0 -162 -78.5 -236.5t-211.5 -74.5h-11q-133 0 -211.5 74.5t-78.5 236.5zM246 279q0 -140 114 -140h5q116 0 116 140v892q0 78 -33 111t-83 33h-3q-50 0 -83 -33t-33 -111v-892z" />
<glyph unicode="P" horiz-adv-x="675" d="M82 0v1442h268q134 0 204.5 -51.5t70.5 -184.5v-389q0 -272 -275 -272h-106v-545h-162zM244 705h102q61 0 91 30.5t30 108.5v336q0 39 -11 64t-32 36t-40 14.5t-46 3.5h-94v-593z" />
<glyph unicode="Q" horiz-adv-x="724" d="M68 293v858q0 160 77.5 234.5t208.5 74.5h11q133 0 210.5 -75t77.5 -236v-856q0 -139 -59 -214t-162 -91v-13q0 -73 35 -105t88 -32h78v-137h-80q-129 0 -196.5 70t-67.5 209v8q-103 16 -162 90.5t-59 214.5zM246 293q0 -78 32.5 -115t77.5 -37h6q48 0 81.5 37t33.5 115 v868q0 78 -34 116t-83 38h-2q-46 0 -79 -38.5t-33 -115.5v-868z" />
<glyph unicode="R" horiz-adv-x="708" d="M82 0v1442h266q283 0 283 -248v-383q0 -206 -152 -250l162 -561h-162l-149 530h-86v-530h-162zM244 696h114q61 0 91 31t30 109v344q0 39 -11 64t-32.5 36t-40.5 14.5t-47 3.5h-104v-602z" />
<glyph unicode="S" horiz-adv-x="706" d="M66 279v223h159v-211q0 -79 35.5 -115.5t91.5 -36.5h4q52 0 86.5 36.5t34.5 115.5v178q0 52 -22.5 93t-59 69t-80 54.5t-87.5 57t-80.5 66.5t-59 93t-22.5 128v154q0 80 25.5 137t70 86t91.5 41t103 12h11q54 0 101.5 -15.5t87.5 -48.5t63.5 -90.5t23.5 -134.5v-210h-160 v200q0 79 -36 116.5t-93 37.5h-2q-51 0 -88 -38.5t-37 -115.5v-104q0 -52 23 -93t59.5 -69t81 -54t89 -56t81 -67.5t59.5 -96t23 -132.5v-210q0 -81 -24.5 -141t-67 -93.5t-90.5 -49t-103 -15.5h-10q-39 0 -77 9t-75.5 31.5t-66 55.5t-46 85.5t-17.5 117.5z" />
<glyph unicode="T" horiz-adv-x="663" d="M41 1282v160h586v-160h-213v-1282h-162v1282h-211z" />
<glyph unicode="U" horiz-adv-x="727" d="M68 291v1151h168v-1151q0 -79 34.5 -115.5t89.5 -36.5h5q58 0 93.5 36t35.5 116v1151h165v-1151q0 -162 -78.5 -236.5t-211.5 -74.5h-11q-133 0 -211.5 74.5t-78.5 236.5z" />
<glyph unicode="V" horiz-adv-x="696" d="M41 1442h162l141 -1280h12l140 1280h163l-180 -1442h-258z" />
<glyph unicode="W" horiz-adv-x="1007" d="M41 1442h162l116 -1106l119 1106h133l123 -1106l121 1106h156l-176 -1442h-189l-100 928l-103 -928h-186z" />
<glyph unicode="X" horiz-adv-x="675" d="M41 0l203 735l-203 707h162l137 -524l137 524h162l-203 -707l203 -735h-162l-137 549l-137 -549h-162z" />
<glyph unicode="Y" horiz-adv-x="671" d="M41 1442h162l137 -613l131 613h164l-213 -846v-596h-162l-4 596z" />
<glyph unicode="Z" horiz-adv-x="675" d="M41 0v162l426 1118h-391v162h557v-160l-428 -1118l434 -2v-162h-598z" />
<glyph unicode="[" horiz-adv-x="493" d="M82 -389l2 2025h379v-112h-230v-1805h238v-108h-389z" />
<glyph unicode="\" horiz-adv-x="501" d="M23 1585h135l321 -1585h-133z" />
<glyph unicode="]" horiz-adv-x="491" d="M23 -281h237v1805h-229v112h379l2 -2025h-389v108z" />
<glyph unicode="^" horiz-adv-x="432" d="M29 1038l114 404h148l112 -404h-122l-58 295h-14l-57 -295h-123z" />
<glyph unicode="_" horiz-adv-x="753" d="M33 0v121h688v-121h-688z" />
<glyph unicode="`" horiz-adv-x="307" d="M31 1757h145l111 -252h-97z" />
<glyph unicode="a" horiz-adv-x="679" d="M43 242v123q0 57 22.5 101t58 70.5t79 47t87 37.5t79 35t58 46.5t22.5 65.5v88q0 65 -27.5 89t-73.5 24q-102 0 -102 -113v-139h-166v141q0 64 23 112.5t62 75.5t82 39.5t91 12.5q274 0 274 -228v-870h-131l-4 70q-55 -90 -198 -90q-121 0 -178.5 58.5t-57.5 203.5z M209 244q0 -125 123 -125q52 0 86.5 31t34.5 102v313q-27 -19 -77 -43t-82.5 -40t-58.5 -47t-26 -70v-121z" />
<glyph unicode="b" d="M82 0v1442h162v-445q27 47 73.5 74t104.5 27q110 0 170.5 -67.5t60.5 -180.5v-627q0 -109 -64 -176t-167 -67q-163 0 -211 124v-104h-129zM244 272q0 -76 37 -112.5t90 -36.5q55 0 88 38.5t33 110.5v529q0 75 -33 115t-88 40q-52 0 -89.5 -39.5t-37.5 -115.5v-529z" />
<glyph unicode="c" horiz-adv-x="679" d="M68 258v561q0 136 74.5 207.5t195.5 71.5q130 0 202 -73.5t72 -205.5v-168h-163v158q0 75 -33 110t-78 35q-43 0 -76 -35t-33 -110v-537q0 -78 33 -113.5t78 -35.5q44 0 76.5 36t32.5 113v160h163v-174q0 -136 -72 -207t-202 -71q-122 0 -196 69.5t-74 208.5z" />
<glyph unicode="d" horiz-adv-x="704" d="M61 272v521q0 152 55.5 228.5t176.5 76.5q120 0 176 -99v443h162v-1442h-127v104q-48 -124 -211 -124q-106 0 -169 75t-63 217zM223 272q0 -72 32.5 -110.5t86.5 -38.5q53 0 90 36.5t37 112.5v535q0 76 -37 112.5t-90 36.5t-86 -43t-33 -118v-523z" />
<glyph unicode="e" horiz-adv-x="681" d="M68 260v563q0 135 74 205t196 70h10q119 0 192.5 -70.5t73.5 -204.5v-356h-385v-191q0 -77 31.5 -114t81.5 -37h2q49 0 79 37t30 114v27l161 2v-43q0 -137 -72.5 -209.5t-193.5 -72.5h-10q-121 0 -195.5 72t-74.5 208zM229 588h224v217q0 75 -33 112t-76 37h-2 q-50 0 -81.5 -36t-31.5 -113v-217z" />
<glyph unicode="f" horiz-adv-x="538" d="M41 928v145h121v82q0 143 75.5 215t202.5 72h62v-123h-31q-68 0 -107.5 -40t-39.5 -124v-82h178v-145h-178v-928h-162v928h-121z" />
<glyph unicode="g" horiz-adv-x="690" d="M61 -31h162q0 -81 26 -124.5t91 -43.5q117 0 117 162v205q-23 -47 -69 -74.5t-99 -27.5q-112 0 -170 65.5t-58 179.5v543q0 115 57.5 179.5t170.5 64.5q64 0 113 -35t69 -94l16 104h131v-1126q0 -138 -74 -208.5t-204 -70.5q-137 0 -208 73t-71 206v22zM223 360 q0 -74 31 -112.5t86 -38.5q43 0 80 38.5t37 112.5v445q0 77 -33.5 114t-83.5 37q-55 0 -86 -38t-31 -113v-445z" />
<glyph unicode="h" d="M82 0v1442h162v-451q31 47 85 75t117 28q101 0 154 -63t53 -177v-854h-161v807q0 74 -29 111.5t-82 37.5q-56 0 -96.5 -37.5t-40.5 -113.5v-805h-162z" />
<glyph unicode="i" horiz-adv-x="325" d="M82 0v1073h162v-1073h-162zM82 1221v221h162v-221h-162z" />
<glyph unicode="j" horiz-adv-x="315" d="M-106 -197h30q148 0 148 162v1108h161v-1118q0 -143 -75.5 -215t-202.5 -72h-61v135zM72 1221v221h161v-221h-161z" />
<glyph unicode="k" horiz-adv-x="661" d="M82 0v1442h162v-762h4l207 393h163l-233 -444l240 -629h-166l-185 461l-36 -62l2 -399h-158z" />
<glyph unicode="l" horiz-adv-x="325" d="M82 0v1442h162v-1442h-162z" />
<glyph unicode="m" horiz-adv-x="1120" d="M82 0v1073h119l8 -100q26 58 85 91.5t134 33.5q155 0 199 -107q31 49 84 78t112 29q123 0 176.5 -57.5t53.5 -172.5v-868h-164v819q0 74 -28 105.5t-89 31.5q-45 0 -85 -38.5t-40 -112.5v-805h-162v819q0 73 -26.5 105t-81.5 32q-59 0 -96 -37t-37 -114v-805h-162z" />
<glyph unicode="n" d="M82 0v1073h143l-6 -92q26 52 79.5 82.5t119.5 30.5q115 0 175 -58t60 -168v-868h-161v819q0 74 -25.5 105.5t-83.5 31.5q-53 0 -96 -38t-43 -113v-805h-162z" />
<glyph unicode="o" horiz-adv-x="681" d="M68 270v539q0 139 72 214t196 75h10q124 0 196 -75t72 -214v-539q0 -140 -72 -215t-196 -75h-10q-124 0 -196 75t-72 215zM219 272q0 -76 34.5 -112.5t84.5 -36.5h4q53 0 88 36.5t35 112.5v533q0 76 -35.5 113.5t-87.5 37.5h-2q-51 0 -86 -37.5t-35 -113.5v-533z" />
<glyph unicode="p" d="M82 -315v1388h139l-10 -102q49 123 211 123q105 0 168 -74t63 -205v-536q0 -136 -59 -207.5t-172 -71.5q-59 0 -105.5 25t-72.5 71v-411h-162zM244 293q0 -76 37 -113t90 -37q56 0 88.5 38.5t32.5 111.5v514q0 72 -33 110.5t-88 38.5q-53 0 -90 -36.5t-37 -112.5v-514z " />
<glyph unicode="q" horiz-adv-x="704" d="M61 244v606q0 107 64.5 175.5t167.5 68.5q79 0 133.5 -32t77.5 -91l-10 102h137v-1388h-162v411q-26 -46 -72.5 -71t-103.5 -25q-113 0 -172.5 65.5t-59.5 178.5zM223 293q0 -73 32.5 -111.5t86.5 -38.5q53 0 90 37t37 113v508q0 76 -37 112.5t-90 36.5 q-54 0 -86.5 -38.5t-32.5 -110.5v-508z" />
<glyph unicode="r" horiz-adv-x="466" d="M82 0v1073h121l4 -131q23 62 80.5 96.5t138.5 34.5h16v-153h-67q-53 0 -92 -37t-39 -107v-776h-162z" />
<glyph unicode="s" horiz-adv-x="665" d="M70 752v116q0 64 22.5 111t62 72t82.5 36t93 11q48 0 90 -11t79.5 -36t59 -71.5t21.5 -111.5v-163h-148v153q0 111 -102 111q-111 0 -111 -111v-90q0 -37 21 -65t54.5 -46t73.5 -34.5t80.5 -37t74 -47t54.5 -70.5t21 -101v-123q0 -140 -74 -201t-194 -61 q-115 0 -186.5 57t-71.5 182v158h149v-125q0 -133 109 -133q114 0 114 125v94q0 37 -20.5 65t-53.5 46.5t-73 35.5t-80 38.5t-73 48.5t-53.5 73t-20.5 105z" />
<glyph unicode="t" horiz-adv-x="538" d="M41 928v145h121v369h162v-369h178v-145h-178v-662q0 -90 34 -106q13 -6 36 -5q39 0 108 17v-152l-105 -18q-42 -9 -76 -9q-159 0 -159 202v733h-121z" />
<glyph unicode="u" horiz-adv-x="704" d="M61 223v850h162v-801q0 -73 32.5 -111t88.5 -38q52 0 88.5 36.5t36.5 112.5v801h162v-1073h-113l-10 115q-22 -62 -75 -98.5t-126 -36.5q-246 0 -246 243z" />
<glyph unicode="v" horiz-adv-x="653" d="M41 1073h156l129 -938h6l129 938h153l-161 -1073h-248z" />
<glyph unicode="w" horiz-adv-x="1007" d="M41 1073h162l106 -895l129 895h133l131 -893l113 893h156l-164 -1073h-189l-112 778l-113 -778h-188z" />
<glyph unicode="x" horiz-adv-x="638" d="M41 0l182 530l-182 543h149l125 -385l125 385h148l-182 -543l194 -530h-147l-138 381l-125 -381h-149z" />
<glyph unicode="y" horiz-adv-x="688" d="M68 -31h161q2 -82 28 -125t89 -43t92 40.5t29 121.5v187q-24 -41 -71 -62.5t-103 -21.5q-107 0 -166 66.5t-59 178.5v762h161v-713q0 -73 32 -112t83 -39q48 0 83.5 37.5t35.5 113.5v713h162v-1126q0 -143 -75.5 -211t-205.5 -68q-132 0 -204 72t-72 207v22z" />
<glyph unicode="z" horiz-adv-x="563" d="M41 0l4 158l297 760h-281v155h461l-4 -153l-297 -762l299 -2v-156h-479z" />
<glyph unicode="{" horiz-adv-x="464" d="M33 598v131q72 0 98.5 25t26.5 98v504q0 145 62.5 217t174.5 72h45v-132h-43q-34 0 -58 -30t-24 -90v-519q0 -71 -27.5 -126t-66.5 -84q39 -27 66.5 -82t27.5 -125v-588q0 -121 82 -121h43v-129h-45q-117 0 -177 68.5t-60 236.5v553q0 75 -27 98t-98 23z" />
<glyph unicode="|" horiz-adv-x="280" d="M82 -410v2048h119v-2048h-119z" />
<glyph unicode="}" horiz-adv-x="464" d="M25 -252h43q82 0 82 121v588q0 70 27.5 125t66.5 82q-39 29 -66.5 84t-27.5 126v519q0 60 -24 90t-58 30h-43v132h45q112 0 174.5 -72t62.5 -217v-504q0 -73 26.5 -98t98.5 -25v-131q-71 0 -98 -23t-27 -98v-530q0 -328 -237 -328h-45v129z" />
<glyph unicode="~" horiz-adv-x="628" d="M76 610q30 73 107.5 91.5t148.5 -23.5q1 0 12 -6t13.5 -6.5t12.5 -4.5t14 -3t12.5 1t13 4.5t11.5 11t12.5 17.5t10.5 25l93 -45q-30 -81 -98.5 -100t-147.5 26q-90 49 -123 -33z" />
<glyph unicode="&#xa1;" horiz-adv-x="331" d="M82 1036v181h170v-181h-170zM86 -223v780l31 354h100l31 -354v-780h-162z" />
<glyph unicode="&#xa2;" horiz-adv-x="702" d="M68 264v436q0 120 60.5 190.5t164.5 84.5v158h104v-156q116 -12 177 -84t61 -193v-133h-162v117q0 76 -35.5 113t-87.5 37q-51 0 -86 -37t-35 -113v-403q0 -77 35.5 -114.5t87.5 -37.5q51 0 86 38t35 114v118h162v-135q0 -123 -61 -193.5t-177 -82.5v-156h-104v158 q-105 14 -165 83.5t-60 190.5z" />
<glyph unicode="&#xa3;" d="M41 0v162h78v354h-78v148h78v385q0 127 71 192.5t195 65.5q133 0 202.5 -67.5t69.5 -190.5v-138h-151v123q0 72 -34.5 108t-84.5 36q-49 0 -83 -36t-34 -108v-370h252v-148h-252v-354h387v-162h-616z" />
<glyph unicode="&#xa4;" horiz-adv-x="772" d="M0 172l137 139q-39 61 -39 152v180q0 93 37 148l-135 135l74 73l127 -127q67 50 176 50h10q113 0 182 -52l129 129l74 -73l-139 -140q35 -56 35 -143v-180q0 -92 -37 -150l141 -141l-74 -74l-133 135q-73 -49 -178 -49h-10q-101 0 -172 47l-131 -133zM260 479 q0 -77 34.5 -113t86.5 -36h4q52 0 86.5 36t34.5 113v150q0 76 -35.5 113.5t-87.5 37.5h-2q-51 0 -86 -37.5t-35 -113.5v-150z" />
<glyph unicode="&#xa5;" horiz-adv-x="659" d="M33 1313h149l150 -572l147 572h150l-213 -762h157v-113h-163v-94h163v-113h-163v-231h-150l-2 231h-166v113h164v94h-164v113h156z" />
<glyph unicode="&#xa6;" horiz-adv-x="301" d="M82 399h137v-809h-137v809zM82 829v809h137v-809h-137z" />
<glyph unicode="&#xa7;" horiz-adv-x="638" d="M49 -8v139h154v-106q0 -69 35 -101.5t79 -32.5q49 0 82 30t33 95v66q0 37 -21 65t-54.5 46.5t-73.5 35.5t-80.5 38.5t-74 49t-54.5 73.5t-21 106v118q0 150 127 205q-123 74 -123 215v101q0 64 23.5 111t64 71.5t84.5 35.5t95 11q49 0 92.5 -11t84.5 -35.5t65 -71.5 t24 -111v-131h-154v112q0 43 -21 69.5t-43.5 33t-47.5 6.5q-18 0 -35.5 -4.5t-36 -15t-30 -34t-11.5 -55.5v-65q0 -37 21 -65.5t54 -47t73 -35t80.5 -37.5t73.5 -47.5t54 -70.5t21 -101v-121q0 -160 -109 -221q109 -73 109 -196v-95q0 -72 -23 -125t-62.5 -81t-85.5 -41 t-100 -13q-51 0 -96.5 12.5t-85 39t-63 74.5t-23.5 112zM207 539q0 -71 35 -103.5t80 -32.5q48 0 79 30t31 97v64q0 33 -11.5 56.5t-30.5 34.5t-36.5 15.5t-34.5 4.5q-42 0 -77 -24.5t-35 -86.5v-55z" />
<glyph unicode="&#xa8;" horiz-adv-x="501" d="M39 1520v149h145v-149h-145zM272 1520v149h148v-149h-148z" />
<glyph unicode="&#xa9;" horiz-adv-x="940" d="M49 649q0 300 105.5 435t316.5 135q209 0 314.5 -135.5t105.5 -434.5q0 -302 -105.5 -435.5t-314.5 -133.5q-212 0 -317 133.5t-105 435.5zM141 649q0 -261 79 -367t251 -106q113 0 183 43t107.5 148t37.5 282q0 258 -79 365.5t-249 107.5q-171 0 -250.5 -107t-79.5 -366 zM279 498v315q0 101 53.5 156t136.5 55q93 0 144 -55.5t51 -155.5v-90h-101v80q0 63 -26.5 93t-67.5 30q-37 0 -63.5 -30.5t-26.5 -92.5v-295q0 -63 27 -94t65 -31q39 0 65.5 31t26.5 94v84h101v-94q0 -102 -51.5 -157.5t-143.5 -55.5q-83 0 -136.5 55.5t-53.5 157.5z" />
<glyph unicode="&#xaa;" horiz-adv-x="335" d="M39 1126v39q0 32 18 54t43.5 34t51 22.5t43.5 25.5t18 36v17q0 45 -41 45t-41 -45v-49h-76v55q0 53 35 77.5t80 24.5q51 0 88.5 -22.5t38.5 -75.5v-350h-74v33q-24 -41 -80 -41q-53 0 -78.5 27t-25.5 93zM117 1120q0 -47 49 -47q51 0 51 53v117q-11 -7 -41.5 -21 t-44.5 -27.5t-14 -33.5v-41z" />
<glyph unicode="&#xab;" horiz-adv-x="845" d="M33 586l342 338h170l-342 -338l342 -336h-170zM305 586l342 338h170l-342 -338l342 -336h-170z" />
<glyph unicode="&#xac;" horiz-adv-x="591" d="M23 500v135h546v-342h-135l-2 207h-409z" />
<glyph unicode="&#xad;" horiz-adv-x="610" d="M33 582v120h545v-120h-545z" />
<glyph unicode="&#xae;" horiz-adv-x="940" d="M49 649q0 300 105.5 435t316.5 135q209 0 314.5 -135.5t105.5 -434.5q0 -302 -105.5 -435.5t-314.5 -133.5q-212 0 -317 133.5t-105 435.5zM141 649q0 -261 79 -367t251 -106q113 0 183 43t107.5 148t37.5 282q0 258 -79 365.5t-249 107.5q-171 0 -250.5 -107t-79.5 -366 zM317 301v719h177q155 0 155 -158v-141q0 -130 -94 -156l96 -264h-98l-94 256h-47v-256h-95zM412 643h73q37 0 52.5 20t15.5 70v121q0 51 -17 68.5t-51 17.5h-73v-297z" />
<glyph unicode="&#xaf;" horiz-adv-x="509" d="M90 1518v114h330v-114h-330z" />
<glyph unicode="&#xb0;" horiz-adv-x="446" d="M33 1223q0 81 14 135t41.5 82t59.5 38.5t77 10.5q43 0 74.5 -10.5t59 -38t41.5 -82t14 -135.5q0 -149 -50 -207t-139 -58q-91 0 -141.5 58t-50.5 207zM139 1223q0 -99 22 -137.5t64 -38.5q40 0 60 38t20 138q0 103 -19.5 139.5t-60.5 36.5q-43 0 -64.5 -36.5 t-21.5 -139.5z" />
<glyph unicode="&#xb1;" horiz-adv-x="610" d="M33 0v121h545v-121h-545zM33 500v135h205v207h135v-207h205v-135h-205v-207h-135v207h-205z" />
<glyph unicode="&#xb4;" horiz-adv-x="307" d="M33 1505l106 240h144l-152 -240h-98z" />
<glyph unicode="&#xb6;" horiz-adv-x="632" d="M33 819v381q0 242 239 242h312v-96h-74v-1346h-90v1348h-49v-1350h-90v588h-9q-48 0 -84.5 7.5t-74.5 30t-59 72t-21 123.5z" />
<glyph unicode="&#xb7;" horiz-adv-x="251" d="M45 612v160h162v-160h-162z" />
<glyph unicode="&#xb8;" horiz-adv-x="325" d="M33 -86l47 98h90l-43 -96h35q131 0 131 -129q0 -54 -37.5 -93.5t-101.5 -39.5q-89 0 -99 2v86q10 -2 49 -2q93 0 93 47q0 31 -13 44t-57 13h-94v70z" />
<glyph unicode="&#xba;" horiz-adv-x="362" d="M39 1124v211q0 56 35.5 89.5t85.5 33.5h22q50 0 85.5 -33.5t35.5 -89.5v-211q0 -56 -35.5 -88t-85.5 -32h-22q-50 0 -85.5 32t-35.5 88zM119 1145q0 -32 14.5 -48t36.5 -16h2q22 0 36.5 16t14.5 48v172q0 32 -14.5 47.5t-36.5 15.5h-2q-22 0 -36.5 -15.5t-14.5 -47.5 v-172z" />
<glyph unicode="&#xbb;" horiz-adv-x="839" d="M23 250l342 336l-342 338h170l342 -338l-342 -336h-170zM297 250l342 336l-342 338h170l342 -338l-342 -336h-170z" />
<glyph unicode="&#xbf;" horiz-adv-x="641" d="M45 6v207q0 81 15 141t37.5 91.5t49 62.5t49 56t37.5 71t15 108v168h168v-168q0 -65 -11 -115t-29 -81t-39.5 -56.5t-43.5 -48t-40 -47.5t-29 -63t-11 -88v-207q0 -68 30.5 -100.5t75.5 -32.5q43 0 75 36t32 103v133h170v-170q0 -124 -71.5 -191t-205.5 -67t-204 67 t-70 191zM248 1049v168h168v-168h-168z" />
<glyph unicode="&#xc0;" horiz-adv-x="688" d="M49 0l174 1442h262l166 -1442h-162l-34 309h-209l-33 -309h-164zM166 1755h143l107 -237h-99zM258 469h186l-86 813h-10z" />
<glyph unicode="&#xc1;" horiz-adv-x="688" d="M49 0l174 1442h262l166 -1442h-162l-34 309h-209l-33 -309h-164zM258 469h186l-86 813h-10zM287 1505l106 240h144l-152 -240h-98z" />
<glyph unicode="&#xc2;" horiz-adv-x="688" d="M49 0l174 1442h262l166 -1442h-162l-34 309h-209l-33 -309h-164zM156 1505l127 240h143l127 -240h-100l-99 142l-98 -142h-100zM258 469h186l-86 813h-10z" />
<glyph unicode="&#xc3;" horiz-adv-x="688" d="M49 0l174 1442h262l166 -1442h-162l-34 309h-209l-33 -309h-164zM137 1544q30 73 106.5 91.5t147.5 -23.5q3 -1 8 -4q14 -7 22 -10.5t22 -5.5t23 3t19.5 18.5t18.5 37.5l94 -45q-30 -81 -99.5 -100t-148.5 26q-90 49 -123 -33zM258 469h186l-86 813h-10z" />
<glyph unicode="&#xc4;" horiz-adv-x="688" d="M49 0l174 1442h262l166 -1442h-162l-34 309h-209l-33 -309h-164zM162 1520v149h147v-149h-147zM258 469h186l-86 813h-10zM397 1520v149h146v-149h-146z" />
<glyph unicode="&#xc5;" horiz-adv-x="688" d="M49 0l174 1442h262l166 -1442h-162l-34 309h-209l-33 -309h-164zM207 1614q0 60 43 103.5t104 43.5q60 0 104 -43.5t44 -103.5t-44 -104t-104 -44q-61 0 -104 43t-43 105zM258 469h186l-86 813h-10zM285 1614q0 -29 20 -49.5t49 -20.5q31 0 51.5 19.5t20.5 50.5 q0 29 -21.5 50.5t-50.5 21.5t-49 -21t-20 -51z" />
<glyph unicode="&#xc6;" horiz-adv-x="946" d="M49 0l174 1442h686v-142h-311v-469h262v-155h-262v-531h311v-145h-475v309h-188l-33 -309h-164zM258 469h176l2 831l-86 -2z" />
<glyph unicode="&#xc7;" d="M68 295v866q0 152 77.5 225.5t208.5 73.5h11q132 0 210 -75.5t78 -235.5v-191h-166v203q0 78 -35.5 116t-91.5 38h-2q-54 0 -89.5 -38t-35.5 -116v-866q0 -79 35 -115.5t88 -36.5h4q56 0 91.5 36.5t35.5 115.5v248h166v-248q0 -152 -70 -227.5t-188 -83.5l-37 -80h35 q131 0 131 -127q0 -54 -38.5 -94.5t-102.5 -40.5q-88 0 -96 2v86q8 -2 47 -2q92 0 92 49q0 30 -13 42.5t-57 12.5h-92v70l39 84q-235 31 -235 309z" />
<glyph unicode="&#xc8;" horiz-adv-x="593" d="M82 0l2 1442h473v-142h-311v-469h262v-155h-262v-531h311v-145h-475zM160 1755h145l105 -237h-97z" />
<glyph unicode="&#xc9;" horiz-adv-x="593" d="M82 0l2 1442h473v-142h-311v-469h262v-155h-262v-531h311v-145h-475zM227 1505l105 240h145l-153 -240h-97z" />
<glyph unicode="&#xca;" horiz-adv-x="593" d="M82 0l2 1442h473v-142h-311v-469h262v-155h-262v-531h311v-145h-475zM119 1513l125 240h143l127 -240h-100l-99 142l-98 -142h-98z" />
<glyph unicode="&#xcb;" horiz-adv-x="593" d="M82 0l2 1442h473v-142h-311v-469h262v-155h-262v-531h311v-145h-475zM131 1520v149h148v-149h-148zM367 1520v149h145v-149h-145z" />
<glyph unicode="&#xcc;" horiz-adv-x="305" d="M-53 1776h149l94 -258h-96zM63 0v1442h162v-1442h-162z" />
<glyph unicode="&#xcd;" horiz-adv-x="348" d="M82 0v1442h162v-1442h-162zM96 1505l105 240h145l-153 -240h-97z" />
<glyph unicode="&#xce;" horiz-adv-x="372" d="M10 1511l94 258h168l95 -258h-91l-88 183l-88 -183h-90zM106 0v1442h160v-1442h-160z" />
<glyph unicode="&#xcf;" horiz-adv-x="288" d="M-45 1520v159h145v-159h-145zM63 0v1442h162v-1442h-162zM188 1520v159h146v-159h-146z" />
<glyph unicode="&#xd0;" horiz-adv-x="786" d="M23 580v120h104v742h309q129 0 205 -75t76 -226v-840q0 -301 -281 -301h-309v580h-104zM289 152h145q52 0 86.5 36t34.5 113v840q0 74 -35 111.5t-84 37.5h-147v-590h186v-120h-186v-428z" />
<glyph unicode="&#xd1;" horiz-adv-x="749" d="M82 0v1442h164l260 -934v934h162v-1442h-162l-260 934v-934h-164zM143 1544q30 73 107 91.5t147 -23.5q2 -1 13 -6t14 -6.5t13 -5t14 -3t12.5 1t13.5 5t12 11t12.5 17.5t10.5 25l92 -45q-30 -81 -98.5 -100t-147.5 26q-89 48 -122 -33z" />
<glyph unicode="&#xd2;" horiz-adv-x="702" d="M47 291v860q0 160 78.5 234.5t210.5 74.5h10q132 0 209.5 -75.5t77.5 -235.5v-858q0 -162 -77.5 -236.5t-209.5 -74.5h-10q-132 0 -210.5 75t-78.5 236zM166 1755h143l105 -237h-97zM227 291q0 -78 33.5 -116t77.5 -38h4q47 0 81 38t34 116v870q0 77 -34 115.5t-81 38.5 h-2q-45 0 -79 -38.5t-34 -115.5v-870z" />
<glyph unicode="&#xd3;" horiz-adv-x="702" d="M47 291v860q0 160 78.5 234.5t210.5 74.5h10q132 0 209.5 -75.5t77.5 -235.5v-858q0 -162 -77.5 -236.5t-209.5 -74.5h-10q-132 0 -210.5 75t-78.5 236zM227 291q0 -78 33.5 -116t77.5 -38h4q47 0 81 38t34 116v870q0 77 -34 115.5t-81 38.5h-2q-45 0 -79 -38.5 t-34 -115.5v-870zM285 1505l106 240h144l-152 -240h-98z" />
<glyph unicode="&#xd4;" d="M68 291v860q0 160 77.5 234.5t208.5 74.5h11q133 0 210.5 -75t77.5 -236v-858q0 -162 -77.5 -236.5t-210.5 -74.5h-11q-131 0 -208.5 75t-77.5 236zM162 1505l127 240h143l125 -240h-100l-97 142l-98 -142h-100zM246 291q0 -78 33 -116t77 -38h6q47 0 81 38t34 116v870 q0 77 -34.5 115.5t-82.5 38.5h-2q-45 0 -78.5 -38.5t-33.5 -115.5v-870z" />
<glyph unicode="&#xd5;" d="M68 291v860q0 160 77.5 234.5t208.5 74.5h11q133 0 210.5 -75t77.5 -236v-858q0 -162 -77.5 -236.5t-210.5 -74.5h-11q-131 0 -208.5 75t-77.5 236zM139 1544q30 73 106.5 91.5t147.5 -23.5l8 -4q18 -9 28.5 -12.5t26.5 -3.5t29 15t23 44l92 -45q-30 -81 -99.5 -100 t-146.5 26q-17 9 -30.5 13.5t-32.5 5.5t-35 -12t-27 -40zM246 291q0 -78 33 -116t77 -38h6q47 0 81 38t34 116v870q0 77 -34.5 115.5t-82.5 38.5h-2q-45 0 -78.5 -38.5t-33.5 -115.5v-870z" />
<glyph unicode="&#xd6;" horiz-adv-x="702" d="M47 291v860q0 160 78.5 234.5t210.5 74.5h10q132 0 209.5 -75.5t77.5 -235.5v-858q0 -162 -77.5 -236.5t-209.5 -74.5h-10q-132 0 -210.5 75t-78.5 236zM152 1520v149h145v-149h-145zM227 291q0 -78 33.5 -116t77.5 -38h4q47 0 81 38t34 116v870q0 77 -34 115.5t-81 38.5 h-2q-45 0 -79 -38.5t-34 -115.5v-870zM385 1520v149h145v-149h-145z" />
<glyph unicode="&#xd7;" horiz-adv-x="645" d="M37 512l201 199l-201 200l86 86l201 -200l200 200l86 -86l-200 -200l200 -201l-88 -84l-198 199l-201 -199z" />
<glyph unicode="&#xd8;" d="M68 293v858q0 160 77.5 234.5t208.5 74.5h11q67 0 120 -18l35 164l-14 -172q147 -67 147 -285v-856q0 -161 -77.5 -236t-210.5 -75h-11q-36 0 -71 6l-43 -205l16 211q-188 53 -188 299zM246 293q0 -62 24 -105l29 353l152 727q-33 47 -91 47l-2 -4q-46 0 -79 -36.5 t-33 -113.5v-868zM315 150q17 -11 41 -11h6q47 0 81 38t34 116v782l-18 -227z" />
<glyph unicode="&#xd9;" horiz-adv-x="749" d="M68 303v1139h184v-1155q0 -76 34.5 -113t84.5 -37h6q51 0 86 37t35 113v1155h184v-1139q0 -164 -81.5 -243.5t-221.5 -79.5h-10q-139 0 -220 79.5t-81 243.5zM199 1776h149l94 -258h-94z" />
<glyph unicode="&#xda;" horiz-adv-x="749" d="M68 303v1139h184v-1155q0 -76 34.5 -113t84.5 -37h6q51 0 86 37t35 113v1155h184v-1139q0 -164 -81.5 -243.5t-221.5 -79.5h-10q-139 0 -220 79.5t-81 243.5zM301 1507l94 258h150l-148 -258h-96z" />
<glyph unicode="&#xdb;" horiz-adv-x="731" d="M49 303v1139h184v-1155q0 -76 34.5 -113t84.5 -37h6q51 0 86 37t35 113v1155h185v-1139q0 -164 -82 -243.5t-222 -79.5h-10q-139 0 -220 79.5t-81 243.5zM174 1505l94 258h166l94 -258h-90l-88 183l-86 -183h-90z" />
<glyph unicode="&#xdc;" horiz-adv-x="749" d="M68 303v1139h184v-1155q0 -76 34.5 -113t84.5 -37h6q51 0 86 37t35 113v1155h184v-1139q0 -164 -81.5 -243.5t-221.5 -79.5h-10q-139 0 -220 79.5t-81 243.5zM190 1559v157h146v-157h-146zM424 1559v157h145v-157h-145z" />
<glyph unicode="&#xdd;" horiz-adv-x="712" d="M41 1442h162l157 -629l152 629h164l-232 -856v-586h-161l-9 586zM295 1505l104 240h146l-152 -240h-98z" />
<glyph unicode="&#xde;" horiz-adv-x="694" d="M63 -145v1732h162v-389h121q128 0 204.5 -71t76.5 -207v-342q0 -142 -75 -210.5t-206 -68.5h-121v-444h-162zM225 453h119q121 0 121 151v301q0 76 -34.5 113t-84.5 37h-121v-602z" />
<glyph unicode="&#xdf;" horiz-adv-x="669" d="M57 -12v1208q0 134 74.5 203t198.5 69q136 0 208 -70.5t72 -201.5v-258q0 -64 -30.5 -113.5t-75.5 -81.5q50 -24 84.5 -74.5t34.5 -129.5v-277q0 -130 -75 -202t-216 -72h-58v145h60q59 0 93 36.5t34 106.5l2 248q0 142 -144 142h-45v145h43q25 0 47 6t43.5 21t34.5 44 t13 70v228q0 76 -36 110.5t-87 34.5q-55 0 -89 -35.5t-34 -109.5v-1192h-152z" />
<glyph unicode="&#xe0;" horiz-adv-x="690" d="M43 254v111q0 57 22.5 101t58 70.5t79 47t87 37.5t79 35t58 46.5t22.5 65.5v88q0 65 -27.5 89t-73.5 24q-102 0 -102 -113v-139h-166v141q0 64 23 112.5t62 75.5t82 39.5t91 12.5q58 0 105.5 -11t90 -35.5t66 -70.5t23.5 -111v-870h-154v70q-32 -42 -83.5 -66t-106.5 -24 q-119 0 -177.5 63.5t-58.5 210.5zM182 1427h144l104 -237h-96zM209 244q0 -125 123 -125q52 0 86.5 31t34.5 102v313q-27 -19 -77 -43t-82.5 -40t-58.5 -47t-26 -70v-121z" />
<glyph unicode="&#xe1;" horiz-adv-x="690" d="M43 254v111q0 57 22.5 101t58 70.5t79 47t87 37.5t79 35t58 46.5t22.5 65.5v88q0 65 -27.5 89t-73.5 24q-102 0 -102 -113v-139h-166v141q0 64 23 112.5t62 75.5t82 39.5t91 12.5q58 0 105.5 -11t90 -35.5t66 -70.5t23.5 -111v-870h-154v70q-32 -42 -83.5 -66t-106.5 -24 q-119 0 -177.5 63.5t-58.5 210.5zM209 244q0 -125 123 -125q52 0 86.5 31t34.5 102v313q-27 -19 -77 -43t-82.5 -40t-58.5 -47t-26 -70v-121zM281 1190l106 237h143l-151 -237h-98z" />
<glyph unicode="&#xe2;" horiz-adv-x="690" d="M43 254v111q0 57 22.5 101t58 70.5t79 47t87 37.5t79 35t58 46.5t22.5 65.5v88q0 65 -27.5 89t-73.5 24q-102 0 -102 -113v-139h-166v141q0 64 23 112.5t62 75.5t82 39.5t91 12.5q58 0 105.5 -11t90 -35.5t66 -70.5t23.5 -111v-870h-154v70q-32 -42 -83.5 -66t-106.5 -24 q-119 0 -177.5 63.5t-58.5 210.5zM162 1190l127 237h143l125 -237h-100l-97 139l-98 -139h-100zM209 244q0 -125 123 -125q52 0 86.5 31t34.5 102v313q-27 -19 -77 -43t-82.5 -40t-58.5 -47t-26 -70v-121z" />
<glyph unicode="&#xe3;" horiz-adv-x="690" d="M43 254v111q0 57 22.5 101t58 70.5t79 47t87 37.5t79 35t58 46.5t22.5 65.5v88q0 65 -27.5 89t-73.5 24q-102 0 -102 -113v-139h-166v141q0 64 23 112.5t62 75.5t82 39.5t91 12.5q58 0 105.5 -11t90 -35.5t66 -70.5t23.5 -111v-870h-154v70q-32 -42 -83.5 -66t-106.5 -24 q-119 0 -177.5 63.5t-58.5 210.5zM129 1239q30 73 106.5 90.5t147.5 -24.5q44 -21 62 -19q33 4 51 60l92 -46q-30 -81 -98.5 -98.5t-147.5 27.5q-89 49 -123 -35zM209 244q0 -125 123 -125q52 0 86.5 31t34.5 102v313q-27 -19 -77 -43t-82.5 -40t-58.5 -47t-26 -70v-121z " />
<glyph unicode="&#xe4;" horiz-adv-x="690" d="M43 254v111q0 57 22.5 101t58 70.5t79 47t87 37.5t79 35t58 46.5t22.5 65.5v88q0 65 -27.5 89t-73.5 24q-102 0 -102 -113v-139h-166v141q0 64 23 112.5t62 75.5t82 39.5t91 12.5q58 0 105.5 -11t90 -35.5t66 -70.5t23.5 -111v-870h-154v70q-32 -42 -83.5 -66t-106.5 -24 q-119 0 -177.5 63.5t-58.5 210.5zM166 1210v160h145v-160h-145zM209 244q0 -125 123 -125q52 0 86.5 31t34.5 102v313q-27 -19 -77 -43t-82.5 -40t-58.5 -47t-26 -70v-121zM399 1210v160h146v-160h-146z" />
<glyph unicode="&#xe5;" horiz-adv-x="690" d="M43 254v111q0 57 22.5 101t58 70.5t79 47t87 37.5t79 35t58 46.5t22.5 65.5v88q0 65 -27.5 89t-73.5 24q-102 0 -102 -113v-139h-166v141q0 64 23 112.5t62 75.5t82 39.5t91 12.5q58 0 105.5 -11t90 -35.5t66 -70.5t23.5 -111v-870h-154v70q-32 -42 -83.5 -66t-106.5 -24 q-119 0 -177.5 63.5t-58.5 210.5zM209 244q0 -125 123 -125q52 0 86.5 31t34.5 102v313q-27 -19 -77 -43t-82.5 -40t-58.5 -47t-26 -70v-121zM209 1290q0 61 43.5 104.5t103.5 43.5q62 0 105 -43t43 -105q0 -60 -43.5 -103.5t-104.5 -43.5q-60 0 -103.5 43.5t-43.5 103.5z M289 1290q0 -29 19 -48t48 -19q31 0 51.5 19t20.5 48q0 31 -20.5 51.5t-51.5 20.5q-29 0 -48 -20.5t-19 -51.5z" />
<glyph unicode="&#xe6;" horiz-adv-x="1083" d="M49 227v142q0 114 69 168.5t189 54.5h146v223q0 76 -34.5 116t-80.5 40q-53 0 -83 -38.5t-30 -117.5v-33h-155v56q0 126 74 193t192 67q133 0 209 -76q77 80 207 80h10q122 0 197 -72t75 -207v-338h-395v-209q0 -76 35.5 -113.5t83.5 -37.5h2q46 0 79 37.5t33 113.5v19 h162v-35q0 -136 -74 -207t-196 -71h-10q-84 0 -147.5 33t-96.5 98q-23 -60 -89 -95.5t-149 -35.5q-111 0 -167 64.5t-56 180.5zM211 252q0 -74 31.5 -113t81.5 -39q55 0 92 37.5t37 114.5v233h-125q-48 0 -82.5 -37.5t-34.5 -111.5v-84zM639 592h233v215q0 76 -33.5 112.5 t-80.5 36.5h-2q-48 0 -82.5 -36.5t-34.5 -112.5v-215z" />
<glyph unicode="&#xe7;" horiz-adv-x="679" d="M68 262v557q0 136 74.5 207.5t195.5 71.5q130 0 202 -73.5t72 -205.5v-168h-163v158q0 75 -33 110t-78 35q-43 0 -76 -35t-33 -110v-530q0 -79 33 -115.5t78 -36.5q43 0 76 36.5t33 115.5v153h163v-170q0 -130 -65.5 -200t-184.5 -78l-30 -68h35q131 0 131 -129 q0 -54 -38.5 -93.5t-103.5 -39.5q-88 0 -96 2v86q5 3 12.5 2.5t20 -2.5t14.5 -2q92 0 92 47q0 31 -12 44t-55 13h-94v70l34 76q-95 18 -149.5 86t-54.5 186z" />
<glyph unicode="&#xe8;" horiz-adv-x="681" d="M68 260v563q0 135 74 205t196 70h10q119 0 192.5 -70.5t73.5 -204.5v-356h-385v-191q0 -77 31.5 -114t81.5 -37h2q49 0 79 37t30 114v27l161 2v-43q0 -137 -72.5 -209.5t-193.5 -72.5h-10q-121 0 -195.5 72t-74.5 208zM156 1427h145l105 -237h-99zM229 588h224v217 q0 75 -33 112t-76 37h-2q-50 0 -81.5 -36t-31.5 -113v-217z" />
<glyph unicode="&#xe9;" horiz-adv-x="681" d="M68 260v563q0 135 74 205t196 70h10q119 0 192.5 -70.5t73.5 -204.5v-356h-385v-191q0 -77 31.5 -114t81.5 -37h2q49 0 79 37t30 114v27l161 2v-43q0 -137 -72.5 -209.5t-193.5 -72.5h-10q-121 0 -195.5 72t-74.5 208zM229 588h224v217q0 75 -33 112t-76 37h-2 q-50 0 -81.5 -36t-31.5 -113v-217zM299 1190l104 237h144l-152 -237h-96z" />
<glyph unicode="&#xea;" horiz-adv-x="681" d="M68 260v563q0 135 74 205t196 70h10q119 0 192.5 -70.5t73.5 -204.5v-356h-385v-191q0 -77 31.5 -114t81.5 -37h2q49 0 79 37t30 114v27l161 2v-43q0 -137 -72.5 -209.5t-193.5 -72.5h-10q-121 0 -195.5 72t-74.5 208zM147 1190l125 237h146l125 -237h-101l-96 139 l-98 -139h-101zM229 588h224v217q0 75 -33 112t-76 37h-2q-50 0 -81.5 -36t-31.5 -113v-217z" />
<glyph unicode="&#xeb;" horiz-adv-x="681" d="M68 260v563q0 135 74 205t196 70h10q119 0 192.5 -70.5t73.5 -204.5v-356h-385v-191q0 -77 31.5 -114t81.5 -37h2q49 0 79 37t30 114v27l161 2v-43q0 -137 -72.5 -209.5t-193.5 -72.5h-10q-121 0 -195.5 72t-74.5 208zM150 1210v160h145v-160h-145zM229 588h224v217 q0 75 -33 112t-76 37h-2q-50 0 -81.5 -36t-31.5 -113v-217zM383 1210v160h147v-160h-147z" />
<glyph unicode="&#xec;" horiz-adv-x="313" d="M-41 1427h143l107 -237h-98zM72 0v1073h161v-1073h-161z" />
<glyph unicode="&#xed;" horiz-adv-x="323" d="M84 0v1073h164v-1073h-164zM96 1190l105 237h145l-151 -237h-99z" />
<glyph unicode="&#xee;" horiz-adv-x="296" d="M-47 1190l125 237h145l125 -237h-100l-96 139l-99 -139h-100zM70 0v1073h161v-1073h-161z" />
<glyph unicode="&#xef;" horiz-adv-x="317" d="M-31 1210v160h146v-160h-146zM78 0v1073h164v-1073h-164zM203 1210v160h147v-160h-147z" />
<glyph unicode="&#xf0;" horiz-adv-x="761" d="M61 223v627q0 113 60 178.5t172 65.5q57 0 103.5 -25.5t72.5 -71.5v215h-125v109h125v121h162v-121h106v-109h-106v-1212h-127v104q-48 -124 -211 -124q-103 0 -167.5 67.5t-64.5 175.5zM223 272q0 -72 32.5 -110.5t86.5 -38.5q53 0 90 36.5t37 112.5v529q0 76 -37 113.5 t-90 37.5q-54 0 -86.5 -38.5t-32.5 -112.5v-529z" />
<glyph unicode="&#xf1;" d="M82 0v1073h135v-94q31 54 89 84.5t128 30.5q117 0 168 -58.5t51 -173.5v-862h-161v813q0 75 -26.5 107t-82.5 32q-53 0 -96 -38t-43 -113v-801h-162zM141 1239q30 73 105.5 90.5t146.5 -24.5q44 -21 62 -19q33 4 52 58q1 1 1 2l90 -46q-30 -81 -98.5 -98.5t-145.5 27.5 q-92 47 -125 -35z" />
<glyph unicode="&#xf2;" horiz-adv-x="681" d="M68 270v539q0 139 72 214t196 75h10q124 0 196 -75t72 -214v-539q0 -140 -72 -215t-196 -75h-10q-124 0 -196 75t-72 215zM162 1427h145l105 -237h-97zM219 272q0 -76 34.5 -112.5t84.5 -36.5h4q53 0 88 36.5t35 112.5v533q0 76 -35.5 113.5t-87.5 37.5h-2 q-51 0 -86 -37.5t-35 -113.5v-533z" />
<glyph unicode="&#xf3;" horiz-adv-x="681" d="M68 270v539q0 139 72 214t196 75h10q124 0 196 -75t72 -214v-539q0 -140 -72 -215t-196 -75h-10q-124 0 -196 75t-72 215zM219 272q0 -76 34.5 -112.5t84.5 -36.5h4q53 0 88 36.5t35 112.5v533q0 76 -35.5 113.5t-87.5 37.5h-2q-51 0 -86 -37.5t-35 -113.5v-533z M272 1190l107 237h143l-151 -237h-99z" />
<glyph unicode="&#xf4;" horiz-adv-x="681" d="M68 270v539q0 139 72 214t196 75h10q124 0 196 -75t72 -214v-539q0 -140 -72 -215t-196 -75h-10q-124 0 -196 75t-72 215zM141 1190l127 237h144l125 -237h-99l-98 139l-98 -139h-101zM219 272q0 -76 34.5 -112.5t84.5 -36.5h4q53 0 88 36.5t35 112.5v533 q0 76 -35.5 113.5t-87.5 37.5h-2q-51 0 -86 -37.5t-35 -113.5v-533z" />
<glyph unicode="&#xf5;" horiz-adv-x="681" d="M68 270v539q0 139 72 214t196 75h10q124 0 196 -75t72 -214v-539q0 -140 -72 -215t-196 -75h-10q-124 0 -196 75t-72 215zM121 1239q30 73 106.5 90.5t147.5 -24.5q43 -21 60 -19q33 3 52 60l93 -46q-30 -81 -98.5 -98.5t-147.5 27.5q-89 49 -123 -35zM219 272 q0 -76 34.5 -112.5t84.5 -36.5h4q53 0 88 36.5t35 112.5v533q0 76 -35.5 113.5t-87.5 37.5h-2q-51 0 -86 -37.5t-35 -113.5v-533z" />
<glyph unicode="&#xf6;" horiz-adv-x="681" d="M68 270v539q0 139 72 214t196 75h10q124 0 196 -75t72 -214v-539q0 -140 -72 -215t-196 -75h-10q-124 0 -196 75t-72 215zM152 1192v160h145v-160h-145zM219 272q0 -76 34.5 -112.5t84.5 -36.5h4q53 0 88 36.5t35 112.5v533q0 76 -35.5 113.5t-87.5 37.5h-2 q-51 0 -86 -37.5t-35 -113.5v-533zM385 1192v160h145v-160h-145z" />
<glyph unicode="&#xf7;" horiz-adv-x="735" d="M23 471v121h690v-121h-690zM285 100v158h159v-158h-159zM285 795v157h159v-157h-159z" />
<glyph unicode="&#xf8;" horiz-adv-x="681" d="M68 270v539q0 139 72 214t196 75h10q23 0 35 -2l22 172h64l-25 -185q81 -25 126.5 -95.5t45.5 -178.5v-539q0 -140 -72 -215t-196 -75h-10q-31 0 -43 2l-27 -189h-61l26 203q-77 27 -120 97t-43 177zM219 272q0 -72 35 -112l106 794q-6 2 -18 2h-2q-51 0 -86 -37.5 t-35 -113.5v-533zM311 125q8 -2 27 -2h4q53 0 88 36.5t35 112.5v533q0 81 -45 123z" />
<glyph unicode="&#xf9;" horiz-adv-x="704" d="M61 229v844h162v-794q0 -74 32.5 -113t88.5 -39q51 0 88 38t37 114v794h162v-1073h-129v100q-25 -54 -76.5 -85t-118.5 -31q-246 0 -246 245zM180 1427l150 -96l57 -141l-133 96z" />
<glyph unicode="&#xfa;" horiz-adv-x="704" d="M61 229v844h162v-794q0 -74 32.5 -113t88.5 -39q51 0 88 38t37 114v794h162v-1073h-129v100q-25 -54 -76.5 -85t-118.5 -31q-246 0 -246 245zM272 1190l107 237h143l-151 -237h-99z" />
<glyph unicode="&#xfb;" horiz-adv-x="704" d="M61 229v844h162v-794q0 -74 32.5 -113t88.5 -39q51 0 88 38t37 114v794h162v-1073h-129v100q-25 -54 -76.5 -85t-118.5 -31q-246 0 -246 245zM170 1184l98 243h160l98 -243h-88l-90 168l-90 -168h-88z" />
<glyph unicode="&#xfc;" horiz-adv-x="704" d="M61 229v844h162v-794q0 -74 32.5 -113t88.5 -39q51 0 88 38t37 114v794h162v-1073h-129v100q-25 -54 -76.5 -85t-118.5 -31q-246 0 -246 245zM156 1192v160h145v-160h-145zM389 1192v160h146v-160h-146z" />
<glyph unicode="&#xfd;" horiz-adv-x="688" d="M68 -23h161q1 -78 32 -117.5t85 -39.5q49 0 83 37.5t34 113.5v191q-23 -45 -69 -70.5t-101 -25.5q-107 0 -166 66.5t-59 178.5v762h161v-713q0 -73 32 -112t83 -39q48 0 83.5 37.5t35.5 113.5v713h162v-1116q0 -141 -76 -210t-205 -69q-131 0 -203.5 73.5t-72.5 205.5v20 zM285 1190l106 237h144l-152 -237h-98z" />
<glyph unicode="&#xfe;" horiz-adv-x="712" d="M82 0v1442h162v-244h121q128 0 204 -70.5t76 -207.5v-342q0 -142 -74.5 -210.5t-205.5 -68.5h-121v-299h-162zM244 453h118q121 0 121 151v301q0 76 -34 113t-84 37h-121v-602z" />
<glyph unicode="&#xff;" horiz-adv-x="688" d="M68 -23h161q1 -78 32 -117.5t85 -39.5q49 0 83 37.5t34 113.5v191q-23 -45 -69 -70.5t-101 -25.5q-107 0 -166 66.5t-59 178.5v762h161v-713q0 -73 32 -112t83 -39q48 0 83.5 37.5t35.5 113.5v713h162v-1116q0 -141 -76 -210t-205 -69q-131 0 -203.5 73.5t-72.5 205.5v20 zM154 1202v160h145v-160h-145zM387 1202v160h145v-160h-145z" />
<glyph unicode="&#x152;" horiz-adv-x="1009" d="M68 293v858q0 160 77.5 234.5t208.5 74.5h11q76 0 135 -24v6h473v-160h-311v-448h262v-154h-262v-518h311v-162h-475v6q-58 -24 -133 -24h-11q-130 0 -208 75.5t-78 235.5zM252 287q0 -76 34.5 -113t84.5 -37h6q51 0 86 37t35 113v872q0 76 -35.5 113t-87.5 37l-2 -2 q-51 0 -86 -36t-35 -112v-872z" />
<glyph unicode="&#x153;" horiz-adv-x="1073" d="M68 270v539q0 139 72 214t196 75h10q120 0 193 -70q70 70 192 70h10q118 0 191.5 -70.5t73.5 -204.5v-356h-379v-188q0 -76 31.5 -113t78.5 -39h2q45 0 74 37.5t29 114.5v26h164v-43q0 -136 -72.5 -208t-190.5 -72h-10q-121 0 -192 71q-70 -73 -195 -73h-10 q-124 0 -196 75t-72 215zM219 272q0 -76 34.5 -112.5t84.5 -36.5h4q53 0 88 36.5t35 112.5v533q0 76 -35.5 113.5t-87.5 37.5h-2q-51 0 -86 -37.5t-35 -113.5v-533zM627 598h215v209q0 75 -31.5 112t-73.5 37h-2q-47 0 -77.5 -36t-30.5 -113v-209z" />
<glyph unicode="&#x178;" horiz-adv-x="712" d="M41 1442h162l157 -629l152 629h164l-232 -856v-586h-161l-9 586zM174 1520v149h145v-149h-145zM408 1520v149h145v-149h-145z" />
<glyph unicode="&#x2c6;" horiz-adv-x="399" d="M76 1647h49l90 98l137 -98l-106 -142l-160 99l27 30z" />
<glyph unicode="&#x2dc;" horiz-adv-x="573" d="M51 1544q30 73 107 91.5t147 -23.5l8 -4q18 -9 28.5 -12.5t26.5 -3.5t29 15t23 44l92 -45q-30 -81 -98.5 -100t-147.5 26q-17 9 -30.5 13.5t-32.5 5.5t-34.5 -12t-25.5 -40z" />
<glyph unicode="&#x2000;" horiz-adv-x="888" />
<glyph unicode="&#x2001;" horiz-adv-x="1776" />
<glyph unicode="&#x2002;" horiz-adv-x="888" />
<glyph unicode="&#x2003;" horiz-adv-x="1776" />
<glyph unicode="&#x2004;" horiz-adv-x="592" />
<glyph unicode="&#x2005;" horiz-adv-x="444" />
<glyph unicode="&#x2006;" horiz-adv-x="296" />
<glyph unicode="&#x2007;" horiz-adv-x="296" />
<glyph unicode="&#x2008;" horiz-adv-x="222" />
<glyph unicode="&#x2009;" horiz-adv-x="355" />
<glyph unicode="&#x200a;" horiz-adv-x="98" />
<glyph unicode="&#x2010;" horiz-adv-x="610" d="M33 582v120h545v-120h-545z" />
<glyph unicode="&#x2011;" horiz-adv-x="610" d="M33 582v120h545v-120h-545z" />
<glyph unicode="&#x2012;" horiz-adv-x="610" d="M33 582v120h545v-120h-545z" />
<glyph unicode="&#x2013;" horiz-adv-x="806" d="M33 584v123h743v-123h-743z" />
<glyph unicode="&#x2014;" horiz-adv-x="964" d="M33 584v123h901v-123h-901z" />
<glyph unicode="&#x2018;" horiz-adv-x="229" d="M41 1180v178l53 121h70l-45 -121h69v-178h-147z" />
<glyph unicode="&#x2019;" horiz-adv-x="229" d="M41 1262v180h147v-180l-53 -119h-69l45 119h-70z" />
<glyph unicode="&#x201a;" horiz-adv-x="223" />
<glyph unicode="&#x201c;" horiz-adv-x="442" d="M49 1180v178l53 121h70l-45 -121h70v-178h-148zM246 1180v178l53 121h70l-45 -121h69v-178h-147z" />
<glyph unicode="&#x201d;" horiz-adv-x="442" d="M49 1262v180h148v-180l-54 -119h-69l45 119h-70zM246 1262v180h147v-180l-53 -119h-70l45 119h-69z" />
<glyph unicode="&#x201e;" horiz-adv-x="223" />
<glyph unicode="&#x2022;" horiz-adv-x="352" d="M45 743q0 131 133 131q129 0 129 -131t-129 -131q-133 0 -133 131z" />
<glyph unicode="&#x2026;" horiz-adv-x="710" d="M57 0v168h146v-168h-146zM281 0v168h145v-168h-145zM508 0v168h145v-168h-145z" />
<glyph unicode="&#x202f;" horiz-adv-x="355" />
<glyph unicode="&#x2039;" horiz-adv-x="567" d="M33 586l342 338h170l-342 -338l342 -336h-170z" />
<glyph unicode="&#x203a;" horiz-adv-x="567" d="M23 250l342 336l-342 338h170l342 -338l-342 -336h-170z" />
<glyph unicode="&#x205f;" horiz-adv-x="444" />
<glyph unicode="&#x20ac;" horiz-adv-x="661" d="M0 498v112h78v103h-78v112h78v224q0 127 71.5 192.5t196.5 65.5q132 0 201 -67.5t69 -190.5v-125h-151v110q0 72 -34.5 108t-84.5 36q-49 0 -83 -36t-34 -108v-209h252v-112h-252v-103h252v-112h-252v-230q0 -72 34 -106.5t85 -34.5q49 0 83 35t34 106v119h151v-106 q0 -295 -270 -295q-126 0 -197 73t-71 222v217h-78z" />
<glyph unicode="&#x2122;" horiz-adv-x="743" d="M27 1360v82h264v-82h-90v-565h-82v565h-92zM330 795v647h112l54 -451l57 451h109v-647h-82v379l-56 -379h-55l-57 385v-385h-82z" />
<glyph unicode="&#x25fc;" horiz-adv-x="1075" d="M0 0v1075h1075v-1075h-1075z" />
<glyph unicode="&#xfb03;" horiz-adv-x="1261" d="M41 928v145h117v82q0 143 75.5 215t202.5 72h62v-123h-31q-69 0 -108.5 -40t-39.5 -124v-82h267v82q0 143 75.5 215t202.5 72h62v-123h-31q-68 0 -107.5 -40t-39.5 -124v-82h434v-1073h-162v928h-272v-928h-162v928h-267v-928h-161v928h-117z" />
</font>
</defs>
</svg>
